# xmcd
#
# Track frame offsets:
#	150
#	13431
#	25045
#	39523
#	56513
#	69116
#	87552
#	100635
#	111193
#	130359
#
# Disc length: 1945 seconds
#
# Revision: 1
# Processed by: cddbd v1.5.2PL0 Copyright (c) Steve Scherf et al.
# Submitted via: audiograbber 1.83.01
#
DISCID=7e07970a
DTITLE=Cheetah Palomina - On Down The Line
DYEAR=2006
DGENRE=Country
TTITLE0=Stare To Long
TTITLE1=By My Side
TTITLE2=What The Heck
TTITLE3=Tired Of Being Knocked Down
TTITLE4=On Down The Line
TTITLE5=For To Shame
TTITLE6=Between Here and Tennessee
TTITLE7=LBJ
TTITLE8=500 Down
TTITLE9=Until Then
EXTD=
EXTT0=
EXTT1=
EXTT2=
EXTT3=
EXTT4=
EXTT5=
EXTT6=
EXTT7=
EXTT8=
EXTT9=
PLAYORDER=
